<svg id="Layer_1" data-name="Layer 1" xmlns="http://www.w3.org/2000/svg" viewBox="0 0 335.92 70"><defs><style>.cls-1{fill:#2b2b2b;}.cls-2{fill:#0078d4;}</style></defs><path class="cls-1" d="M11.32,30h19v10.1h-19a24.58,24.58,0,0,0,19,19V70A35.34,35.34,0,0,1,0,35,35,35,0,0,1,.36,30,35.36,35.36,0,0,1,30.31,0V11A24.58,24.58,0,0,0,11.32,30Z"/><path class="cls-2" d="M70.73,35A35.43,35.43,0,0,1,40.41,70v-11a24.58,24.58,0,0,0,19-19h-19V30h30A35,35,0,0,1,70.73,35Z"/><path class="cls-2" d="M109.22,26.93v7.55H121.4v6.57H109.22v8h13.71v7H100.5V20h22.43v6.93Z"/><path class="cls-2" d="M144.28,28.72a8.82,8.82,0,0,1,3.47,4V27.59h8.66V55.88A16.32,16.32,0,0,1,154.88,63a11.61,11.61,0,0,1-4.68,5.07A15.09,15.09,0,0,1,142.35,70q-6.43,0-10.27-3a12.34,12.34,0,0,1-4.62-8.23h8.62a4.33,4.33,0,0,0,1.86,2.7,6.76,6.76,0,0,0,3.79,1,6.08,6.08,0,0,0,4.36-1.56c1.11-1,1.66-2.69,1.66-5v-5a8.82,8.82,0,0,1-3.47,4,10.24,10.24,0,0,1-5.6,1.48,11.46,11.46,0,0,1-6.3-1.76A12,12,0,0,1,128,49.56a17.59,17.59,0,0,1-1.61-7.75A17.52,17.52,0,0,1,128,34a12,12,0,0,1,4.38-5,11.46,11.46,0,0,1,6.3-1.76A10.24,10.24,0,0,1,144.28,28.72Zm-7.31,8a7.17,7.17,0,0,0-1.71,5.09,7.18,7.18,0,0,0,1.71,5.1,6.39,6.39,0,0,0,9,0,7.12,7.12,0,0,0,1.76-5A7.09,7.09,0,0,0,146,36.74a5.93,5.93,0,0,0-4.51-1.86A5.85,5.85,0,0,0,137,36.72Z"/><path class="cls-2" d="M188.24,30.55q2.88,3.27,2.88,9V56h-8.71V40.54a6.24,6.24,0,0,0-1.51-4.46,5.21,5.21,0,0,0-4-1.6,5.44,5.44,0,0,0-4.2,1.68A6.79,6.79,0,0,0,171.14,41V56h-8.71V27.59h8.71v5.2a9.33,9.33,0,0,1,3.65-4,10.64,10.64,0,0,1,5.68-1.48A9.86,9.86,0,0,1,188.24,30.55Z"/><path class="cls-2" d="M213.29,28.72a8.82,8.82,0,0,1,3.47,4V27.59h8.66V56h-8.66V50.89a8.82,8.82,0,0,1-3.47,4,10.24,10.24,0,0,1-5.6,1.48,11.46,11.46,0,0,1-6.3-1.76A12,12,0,0,1,197,49.56a17.59,17.59,0,0,1-1.61-7.75A17.52,17.52,0,0,1,197,34a12,12,0,0,1,4.38-5,11.46,11.46,0,0,1,6.3-1.76A10.24,10.24,0,0,1,213.29,28.72Zm-7.31,8a7.17,7.17,0,0,0-1.71,5.09,7.18,7.18,0,0,0,1.71,5.1,6.39,6.39,0,0,0,9,0,7.12,7.12,0,0,0,1.76-5A7.09,7.09,0,0,0,215,36.74a5.92,5.92,0,0,0-4.51-1.86A5.85,5.85,0,0,0,206,36.72Z"/><path class="cls-2" d="M247.54,48.54V56h-3.92q-5,0-7.77-2.47c-1.86-1.64-2.78-4.37-2.78-8.18V34.93h-3.82V27.59h3.82v-7h8.71v7h5.71v7.34h-5.71V45.54a3.18,3.18,0,0,0,.69,2.34,3.3,3.3,0,0,0,2.32.66Z"/><path class="cls-2" d="M280.72,27.59V56H272V50.89a9.44,9.44,0,0,1-3.65,4,10.54,10.54,0,0,1-5.63,1.48,9.86,9.86,0,0,1-7.77-3.26q-2.88-3.27-2.88-9V27.59h8.66V43a6.32,6.32,0,0,0,1.51,4.51,5.27,5.27,0,0,0,4.05,1.6,5.37,5.37,0,0,0,4.18-1.68A6.87,6.87,0,0,0,272,42.68V27.59Z"/><path class="cls-2" d="M299.66,28.82a10.7,10.7,0,0,1,5.58-1.53v9.33h-2.5a8.67,8.67,0,0,0-5.38,1.47c-1.27,1-1.91,2.65-1.91,5V56h-8.71V27.59h8.71V33A12.32,12.32,0,0,1,299.66,28.82Z"/><path class="cls-2" d="M335.67,43.39H315.94c.11,2.15.65,3.68,1.63,4.62a5.3,5.3,0,0,0,3.78,1.4,5.13,5.13,0,0,0,3.21-1,4.49,4.49,0,0,0,1.68-2.5h9.22A12.07,12.07,0,0,1,333,51.32,13.11,13.11,0,0,1,328.23,55a16.36,16.36,0,0,1-13.89-.41,12.5,12.5,0,0,1-5.07-5.07,15.67,15.67,0,0,1-1.84-7.75A15.82,15.82,0,0,1,309.24,34a12.43,12.43,0,0,1,5.07-5,15.37,15.37,0,0,1,7.44-1.76A15.55,15.55,0,0,1,329.2,29a12.24,12.24,0,0,1,5,4.87,14.4,14.4,0,0,1,1.76,7.21A11.9,11.9,0,0,1,335.67,43.39ZM325.6,35.52a5.56,5.56,0,0,0-3.85-1.4,5.66,5.66,0,0,0-4,1.43A6,6,0,0,0,316,39.72h11.12A5.25,5.25,0,0,0,325.6,35.52Z"/></svg>